<svg id="visual" viewBox="0 0 900 600" width="900" height="600" xmlns="http://www.w3.org/2000/svg" xmlns:xlink="http://www.w3.org/1999/xlink" version="1.1"><rect x="0" y="0" width="900" height="600" fill="#1f1f1f"></rect><path d="M228 0L222.2 14.3C216.3 28.7 204.7 57.3 205.8 85.8C207 114.3 221 142.7 230 171.2C239 199.7 243 228.3 237 257C231 285.7 215 314.3 210.3 343C205.7 371.7 212.3 400.3 210 428.8C207.7 457.3 196.3 485.7 201 514.2C205.7 542.7 226.3 571.3 236.7 585.7L247 600L0 600L0 585.7C0 571.3 0 542.7 0 514.2C0 485.7 0 457.3 0 428.8C0 400.3 0 371.7 0 343C0 314.3 0 285.7 0 257C0 228.3 0 199.7 0 171.2C0 142.7 0 114.3 0 85.8C0 57.3 0 28.7 0 14.3L0 0Z" fill="#d9f24f"></path><path d="M188 0L195.5 14.3C203 28.7 218 57.3 217.3 85.8C216.7 114.3 200.3 142.7 198.3 171.2C196.3 199.7 208.7 228.3 210.2 257C211.7 285.7 202.3 314.3 197.5 343C192.7 371.7 192.3 400.3 195.5 428.8C198.7 457.3 205.3 485.7 205.7 514.2C206 542.7 200 571.3 197 585.7L194 600L0 600L0 585.7C0 571.3 0 542.7 0 514.2C0 485.7 0 457.3 0 428.8C0 400.3 0 371.7 0 343C0 314.3 0 285.7 0 257C0 228.3 0 199.7 0 171.2C0 142.7 0 114.3 0 85.8C0 57.3 0 28.7 0 14.3L0 0Z" fill="#f5c41e"></path><path d="M144 0L150.5 14.3C157 28.7 170 57.3 178.8 85.8C187.7 114.3 192.3 142.7 185 171.2C177.7 199.7 158.3 228.3 158.2 257C158 285.7 177 314.3 181.7 343C186.3 371.7 176.7 400.3 176.2 428.8C175.7 457.3 184.3 485.7 184 514.2C183.7 542.7 174.3 571.3 169.7 585.7L165 600L0 600L0 585.7C0 571.3 0 542.7 0 514.2C0 485.7 0 457.3 0 428.8C0 400.3 0 371.7 0 343C0 314.3 0 285.7 0 257C0 228.3 0 199.7 0 171.2C0 142.7 0 114.3 0 85.8C0 57.3 0 28.7 0 14.3L0 0Z" fill="#ff9220"></path><path d="M155 0L150.7 14.3C146.3 28.7 137.7 57.3 133.7 85.8C129.7 114.3 130.3 142.7 130.3 171.2C130.3 199.7 129.7 228.3 136.5 257C143.3 285.7 157.7 314.3 164 343C170.3 371.7 168.7 400.3 161.5 428.8C154.3 457.3 141.7 485.7 139.8 514.2C138 542.7 147 571.3 151.5 585.7L156 600L0 600L0 585.7C0 571.3 0 542.7 0 514.2C0 485.7 0 457.3 0 428.8C0 400.3 0 371.7 0 343C0 314.3 0 285.7 0 257C0 228.3 0 199.7 0 171.2C0 142.7 0 114.3 0 85.8C0 57.3 0 28.7 0 14.3L0 0Z" fill="#ff5a3d"></path><path d="M120 0L122.5 14.3C125 28.7 130 57.3 131.8 85.8C133.7 114.3 132.3 142.7 126.8 171.2C121.3 199.7 111.7 228.3 106.2 257C100.7 285.7 99.3 314.3 106 343C112.7 371.7 127.3 400.3 134.2 428.8C141 457.3 140 485.7 137.8 514.2C135.7 542.7 132.3 571.3 130.7 585.7L129 600L0 600L0 585.7C0 571.3 0 542.7 0 514.2C0 485.7 0 457.3 0 428.8C0 400.3 0 371.7 0 343C0 314.3 0 285.7 0 257C0 228.3 0 199.7 0 171.2C0 142.7 0 114.3 0 85.8C0 57.3 0 28.7 0 14.3L0 0Z" fill="#ff005e"></path><path d="M106 0L101.8 14.3C97.7 28.7 89.3 57.3 88.5 85.8C87.7 114.3 94.3 142.7 96.7 171.2C99 199.7 97 228.3 97.5 257C98 285.7 101 314.3 97.3 343C93.7 371.7 83.3 400.3 84.5 428.8C85.7 457.3 98.3 485.7 104.7 514.2C111 542.7 111 571.3 111 585.7L111 600L0 600L0 585.7C0 571.3 0 542.7 0 514.2C0 485.7 0 457.3 0 428.8C0 400.3 0 371.7 0 343C0 314.3 0 285.7 0 257C0 228.3 0 199.7 0 171.2C0 142.7 0 114.3 0 85.8C0 57.3 0 28.7 0 14.3L0 0Z" fill="#ee0089"></path><path d="M51 0L55.3 14.3C59.7 28.7 68.3 57.3 69 85.8C69.7 114.3 62.3 142.7 58.8 171.2C55.3 199.7 55.7 228.3 57.7 257C59.7 285.7 63.3 314.3 67.7 343C72 371.7 77 400.3 79.3 428.8C81.7 457.3 81.3 485.7 76.8 514.2C72.3 542.7 63.7 571.3 59.3 585.7L55 600L0 600L0 585.7C0 571.3 0 542.7 0 514.2C0 485.7 0 457.3 0 428.8C0 400.3 0 371.7 0 343C0 314.3 0 285.7 0 257C0 228.3 0 199.7 0 171.2C0 142.7 0 114.3 0 85.8C0 57.3 0 28.7 0 14.3L0 0Z" fill="#c000bb"></path><path d="M37 0L36.3 14.3C35.7 28.7 34.3 57.3 35.5 85.8C36.7 114.3 40.3 142.7 39.7 171.2C39 199.7 34 228.3 32.2 257C30.3 285.7 31.7 314.3 34.7 343C37.7 371.7 42.3 400.3 45.3 428.8C48.3 457.3 49.7 485.7 49.8 514.2C50 542.7 49 571.3 48.5 585.7L48 600L0 600L0 585.7C0 571.3 0 542.7 0 514.2C0 485.7 0 457.3 0 428.8C0 400.3 0 371.7 0 343C0 314.3 0 285.7 0 257C0 228.3 0 199.7 0 171.2C0 142.7 0 114.3 0 85.8C0 57.3 0 28.7 0 14.3L0 0Z" fill="#4f26e9"></path></svg>