<svg id="visual" viewBox="0 0 450 900" width="450" height="900" xmlns="http://www.w3.org/2000/svg" xmlns:xlink="http://www.w3.org/1999/xlink" version="1.1"><rect x="0" y="0" width="450" height="900" fill="#f2e8de"></rect><path d="M114 0L111.2 21.5C108.3 43 102.7 86 103.3 128.8C104 171.7 111 214.3 115.5 257.2C120 300 122 343 119 385.8C116 428.7 108 471.3 105.7 514.2C103.3 557 106.7 600 105.5 642.8C104.3 685.7 98.7 728.3 101 771.2C103.3 814 113.7 857 118.8 878.5L124 900L0 900L0 878.5C0 857 0 814 0 771.2C0 728.3 0 685.7 0 642.8C0 600 0 557 0 514.2C0 471.3 0 428.7 0 385.8C0 343 0 300 0 257.2C0 214.3 0 171.7 0 128.8C0 86 0 43 0 21.5L0 0Z" fill="#8c6ef5"></path><path d="M94 0L97.8 21.5C101.7 43 109.3 86 109 128.8C108.7 171.7 100.3 214.3 99.3 257.2C98.3 300 104.7 343 105.5 385.8C106.3 428.7 101.7 471.3 99.3 514.2C97 557 97 600 98.7 642.8C100.3 685.7 103.7 728.3 103.8 771.2C104 814 101 857 99.5 878.5L98 900L0 900L0 878.5C0 857 0 814 0 771.2C0 728.3 0 685.7 0 642.8C0 600 0 557 0 514.2C0 471.3 0 428.7 0 385.8C0 343 0 300 0 257.2C0 214.3 0 171.7 0 128.8C0 86 0 43 0 21.5L0 0Z" fill="#7c5bf2"></path><path d="M72 0L75.3 21.5C78.7 43 85.3 86 89.8 128.8C94.3 171.7 96.7 214.3 93 257.2C89.3 300 79.7 343 79.7 385.8C79.7 428.7 89.3 471.3 91.7 514.2C94 557 89 600 88.7 642.8C88.3 685.7 92.7 728.3 92.5 771.2C92.3 814 87.7 857 85.3 878.5L83 900L0 900L0 878.5C0 857 0 814 0 771.2C0 728.3 0 685.7 0 642.8C0 600 0 557 0 514.2C0 471.3 0 428.7 0 385.8C0 343 0 300 0 257.2C0 214.3 0 171.7 0 128.8C0 86 0 43 0 21.5L0 0Z" fill="#6c48ef"></path><path d="M78 0L75.8 21.5C73.7 43 69.3 86 67.3 128.8C65.3 171.7 65.7 214.3 65.7 257.2C65.7 300 65.3 343 68.8 385.8C72.3 428.7 79.7 471.3 82.8 514.2C86 557 85 600 81.3 642.8C77.7 685.7 71.3 728.3 70.5 771.2C69.7 814 74.3 857 76.7 878.5L79 900L0 900L0 878.5C0 857 0 814 0 771.2C0 728.3 0 685.7 0 642.8C0 600 0 557 0 514.2C0 471.3 0 428.7 0 385.8C0 343 0 300 0 257.2C0 214.3 0 171.7 0 128.8C0 86 0 43 0 21.5L0 0Z" fill="#5932eb"></path><path d="M61 0L62.2 21.5C63.3 43 65.7 86 66.5 128.8C67.3 171.7 66.7 214.3 63.8 257.2C61 300 56 343 53.2 385.8C50.3 428.7 49.7 471.3 53.2 514.2C56.7 557 64.3 600 67.8 642.8C71.3 685.7 70.7 728.3 69.5 771.2C68.3 814 66.7 857 65.8 878.5L65 900L0 900L0 878.5C0 857 0 814 0 771.2C0 728.3 0 685.7 0 642.8C0 600 0 557 0 514.2C0 471.3 0 428.7 0 385.8C0 343 0 300 0 257.2C0 214.3 0 171.7 0 128.8C0 86 0 43 0 21.5L0 0Z" fill="#4c25e0"></path><path d="M53 0L51 21.5C49 43 45 86 44.7 128.8C44.3 171.7 47.7 214.3 48.8 257.2C50 300 49 343 49.3 385.8C49.7 428.7 51.3 471.3 49.5 514.2C47.7 557 42.3 600 42.8 642.8C43.3 685.7 49.7 728.3 52.8 771.2C56 814 56 857 56 878.5L56 900L0 900L0 878.5C0 857 0 814 0 771.2C0 728.3 0 685.7 0 642.8C0 600 0 557 0 514.2C0 471.3 0 428.7 0 385.8C0 343 0 300 0 257.2C0 214.3 0 171.7 0 128.8C0 86 0 43 0 21.5L0 0Z" fill="#4522ce"></path><path d="M26 0L28.2 21.5C30.3 43 34.7 86 35 128.8C35.3 171.7 31.7 214.3 30 257.2C28.3 300 28.7 343 29.7 385.8C30.7 428.7 32.3 471.3 34.3 514.2C36.3 557 38.7 600 39.8 642.8C41 685.7 41 728.3 38.8 771.2C36.7 814 32.3 857 30.2 878.5L28 900L0 900L0 878.5C0 857 0 814 0 771.2C0 728.3 0 685.7 0 642.8C0 600 0 557 0 514.2C0 471.3 0 428.7 0 385.8C0 343 0 300 0 257.2C0 214.3 0 171.7 0 128.8C0 86 0 43 0 21.5L0 0Z" fill="#3e1fbd"></path><path d="M19 0L18.7 21.5C18.3 43 17.7 86 18.3 128.8C19 171.7 21 214.3 20.7 257.2C20.3 300 17.7 343 16.7 385.8C15.7 428.7 16.3 471.3 17.8 514.2C19.3 557 21.7 600 23.2 642.8C24.7 685.7 25.3 728.3 25.3 771.2C25.3 814 24.7 857 24.3 878.5L24 900L0 900L0 878.5C0 857 0 814 0 771.2C0 728.3 0 685.7 0 642.8C0 600 0 557 0 514.2C0 471.3 0 428.7 0 385.8C0 343 0 300 0 257.2C0 214.3 0 171.7 0 128.8C0 86 0 43 0 21.5L0 0Z" fill="#381cac"></path></svg>